<svg width="64" height="64" viewBox="0 0 100 100" fill="none" xmlns="http://www.w3.org/2000/svg">
    <circle cx="50" cy="50" r="50" fill="#160f35" />
    <g transform="translate(10, 10) scale(0.8)">
        <path d="M75 50C75 66.5685 61.5685 80 45 80C28.4315 80 15 66.5685 15 50C15 33.4315 28.4315 20 45 20C47.7607 20 50.4144 20.3732 52.934 21.0718C44.7891 24.5126 39 32.5843 39 42C39 54.1503 48.8497 64 61 64C66.1953 64 70.9328 62.1932 74.6596 59.1834C74.881 56.242 75 53.218 75 50Z" fill="#FDE047" />
        <g transform="translate(42, 38) rotate(-10)">
            <path d="M0 8C0 3.58172 3.58172 0 8 0H12C16.4183 0 20 3.58172 20 8V18C20 22.4183 16.4183 26 12 26H8C3.58172 26 0 22.4183 0 18V8Z" fill="#e2e8f0" />
            <circle cx="10" cy="-2" r="7" fill="#fecaca" />
            <path d="M7 -2C7 -2 8 -4 10 -4C12 -4 13 -2 13 -2" stroke="#475569" strokeWidth="1.2" strokeLinecap="round" />
        </g>
    </g>
</svg>
